{"title":"Die-Ner (Get It ?) 2010 DVDRip Xvid BigPerm LKRG","uid":6390050,"size":545648115,"categoryP":"video","categoryS":"movies","magnet":"?xt=urn:btih:a367e41a9edf295c9a0410203c5319cff4c02eba&amp;dn=Die-Ner+%28Get+It+%3F%29+2010+DVDRip+Xvid+BigPerm+LKRG&amp;tr=udp%3A%2F%2Ftracker.openbittorrent.com%3A80&amp;tr=udp%3A%2F%2Fopen.demonii.com%3A1337&amp;tr=udp%3A%2F%2Ftracker.coppersurfer.tk%3A6969&amp;tr=udp%3A%2F%2Fexodus.desync.com%3A6969","seeders":0,"leechers":1,"uploader":".BONE.","files":38,"time":1305327837,"description":"PLOT\n\nA horror-comedy of errors, Die-ner (get it?) explores the existential dilemma of a sociopath\nkiller who runs into the unique problem of his victims rising from the dead...\n &lt;a href=&quot;\nhttp://www.imdb.com/title/tt1260570/&quot; rel=&quot;nofollow&quot; target=&quot;_NEW&quot;&gt;\nhttp://www.imdb.com/title/tt1260570/&lt;/a&gt;\n\nEncoded By .......: BigPerm1828\nRuntime ..........: 1h 15mn\nFile Size ........: 528 MiB\nResolution .......: 704x396\nIMDb URL .........: http://www.imdb.com/title/tt1260570/\nLanguage .........: English\nVideo\nID : 0\nFormat : MPEG-4 Visual\nFormat profile : Advanced Simple@L5\nFormat settings, BVOP : Yes\nFormat settings, QPel : No\nFormat settings, GMC : No warppoints\nFormat settings, Matrix : Default (H.263)\nCodec ID : XVID\nCodec ID/Hint : XviD\nDuration : 1h 15mn\nBit rate : 777 Kbps\nWidth : 704 pixels\nHeight : 396 pixels\nDisplay aspect ratio : 16:9\nFrame rate : 29.970 fps\nColor space : YUV\nChroma subsampling : 4:2:0\nBit depth : 8 bits\nScan type : Progressive\nCompression mode : Lossy\nBits/(Pixel*Frame) : 0.093\nStream size : 420 MiB (80%)\nWriting library : XviD 1.2.1 (UTC 2008-12-04)\n\nAudio\nID : 1\nFormat : AC-3\nFormat/Info : Audio Coding 3\nMode extension : CM (complete main)\nCodec ID : 2000\nDuration : 1h 15mn\nBit rate mode : Constant\nBit rate : 192 Kbps\nChannel(s) : 2 channels\nChannel positions : Front: L R\nSampling rate : 48.0 KHz\nBit depth : 16 bits\nCompression mode : Lossy\nVideo delay : 33ms\nStream size : 104 MiB (20%)\nAlignment : Split accross interleaves\nInterleave, duration : 500 ms (14.98 video frames)\nInterleave, preload duration : 500 ms\n &lt;a href=&quot;\nhttp://leetleech.org/images/64407176302516373810.png&quot; rel=&quot;nofollow&quot; target=&quot;_NEW&quot;&gt;\nhttp://leetleech.org/images/64407176302516373810.png&lt;/a&gt;\n &lt;a href=&quot;\nhttp://leetleech.org/images/09238046011071353779.png&quot; rel=&quot;nofollow&quot; target=&quot;_NEW&quot;&gt;\nhttp://leetleech.org/images/09238046011071353779.png&lt;/a&gt;\n &lt;a href=&quot;\nhttp://leetleech.org/images/51756157946178364719.png&quot; rel=&quot;nofollow&quot; target=&quot;_NEW&quot;&gt;\nhttp://leetleech.org/images/51756157946178364719.png&lt;/a&gt;\n &lt;a href=&quot;\nhttp://leetleech.org/images/21652569119966046208.png&quot; rel=&quot;nofollow&quot; target=&quot;_NEW&quot;&gt;\nhttp://leetleech.org/images/21652569119966046208.png&lt;/a&gt;\n &lt;a href=&quot;\nhttp://leetleech.org/images/77421446955341996301.png&quot; rel=&quot;nofollow&quot; target=&quot;_NEW&quot;&gt;\nhttp://leetleech.org/images/77421446955341996301.png&lt;/a&gt;","torrent":{"xt":"urn:btih:a367e41a9edf295c9a0410203c5319cff4c02eba","amp;dn":"Die-Ner+%28Get+It+%3F%29+2010+DVDRip+Xvid+BigPerm+LKRG","amp;tr":["udp%3A%2F%2Ftracker.openbittorrent.com%3A80","udp%3A%2F%2Fopen.demonii.com%3A1337","udp%3A%2F%2Ftracker.coppersurfer.tk%3A6969","udp%3A%2F%2Fexodus.desync.com%3A6969"],"infoHash":"a367e41a9edf295c9a0410203c5319cff4c02eba","infoHashBuffer":{"type":"Buffer","data":[163,103,228,26,158,223,41,92,154,4,16,32,60,83,25,207,244,192,46,186]},"announce":[],"urlList":[]}}